<svg width="87" height="78" viewBox="0 0 87 78" fill="none" xmlns="http://www.w3.org/2000/svg">
<g opacity="0.3">
<path d="M67.9369 76.3233C67.9369 76.3233 16.5736 62.386 30.5667 49.0004C43.961 36.2429 1.75634 38.8244 12.3485 13.981C21.1566 -6.60732 37.5458 4.89538 42.4816 23.5079C49.2159 48.5572 67.4938 5.98021 72.5658 46.6506C76.4833 78.475 67.9369 76.3233 67.9369 76.3233Z" fill="#2835AC" fill-opacity="0.35"/>
<path d="M65.7396 74.2929C63.1704 66.6836 59.6229 59.2405 54.9682 52.1972C50.2291 44.9702 44.2448 38.1595 36.9661 32.4492C32.6113 29.0263 27.825 25.9702 22.616 23.4977C22.0204 23.2304 22.2384 22.9136 22.834 23.1809C31.9365 27.5577 39.873 33.5521 46.3685 40.4465C52.5574 46.9904 57.4832 54.2675 61.2796 61.7775C63.4198 65.9998 65.1954 70.3386 66.6952 74.7106C66.7796 74.8942 65.7972 74.5766 65.7396 74.2929Z" fill="#2835AC" fill-opacity="0.54"/>
<path d="M29.1802 16.0624C31.3828 20.455 32.9419 25.1051 33.2005 30.0512C33.2318 30.203 33.0307 30.149 32.9637 30.131C28.656 29.0454 24.3662 27.8929 20.1659 26.4059C19.9648 26.3519 19.5805 26.1769 19.5001 25.9402C19.4867 25.7214 19.6208 25.7574 19.8218 25.8115C23.9552 27.2805 28.1109 28.397 32.3516 29.4645C32.2666 29.5134 32.1996 29.4954 32.1147 29.5443C31.9052 24.6831 30.3461 20.0331 28.1257 15.7073C28.0631 15.4037 29.0998 15.8256 29.1802 16.0624Z" fill="#2835AC" fill-opacity="0.54"/>
</g>
</svg>
