<svg width="27" height="26" viewBox="0 0 27 26" fill="none" xmlns="http://www.w3.org/2000/svg">
<path d="M13.1122 25.3336C20.3249 25.3336 26.1719 19.6926 26.1719 12.7341C26.1719 5.77555 20.3249 0.134552 13.1122 0.134552C5.89958 0.134552 0.0525665 5.77555 0.0525665 12.7341C0.0525665 19.6926 5.89958 25.3336 13.1122 25.3336Z" fill="#FFDD9A"/>
<path d="M9.5034 16.026H16.7451" stroke="#444444" stroke-width="1.84489" stroke-miterlimit="10" stroke-linecap="round" stroke-linejoin="round"/>
<path d="M7.73584 12.0946C8.3595 12.0946 8.86507 11.6069 8.86507 11.0052C8.86507 10.4035 8.3595 9.9158 7.73584 9.9158C7.11219 9.9158 6.60661 10.4035 6.60661 11.0052C6.60661 11.6069 7.11219 12.0946 7.73584 12.0946Z" fill="#444444"/>
<path d="M17.9725 12.0947C18.5961 12.0947 19.1017 11.6069 19.1017 11.0052C19.1017 10.4036 18.5961 9.9158 17.9725 9.9158C17.3488 9.9158 16.8432 10.4036 16.8432 11.0052C16.8432 11.6069 17.3488 12.0947 17.9725 12.0947Z" fill="#444444"/>
</svg>
